<svg width="14" height="13" viewBox="0 0 14 13" fill="none" xmlns="http://www.w3.org/2000/svg">
<g id="Icon/2fa">
<path id="Shape" d="M10.8185 6.4083C10.8219 8.35724 10.4422 10.2878 9.70092 12.0903C9.60431 12.3257 9.38938 12.4917 9.13717 12.5257C8.88496 12.5596 8.63381 12.4564 8.47839 12.2548C8.32297 12.0533 8.28692 11.7842 8.38382 11.5489C9.05431 9.91813 9.3977 8.17149 9.39445 6.4083C9.39445 6.01506 9.71323 5.69627 10.1065 5.69627C10.4997 5.69627 10.8185 6.01506 10.8185 6.4083H10.8185ZM7.25835 4.2722C7.86614 4.27265 8.44506 4.53156 8.85057 4.9843C9.02025 5.17384 9.27815 5.25847 9.52714 5.2063C9.77613 5.15414 9.97837 4.9731 10.0577 4.73138C10.137 4.48967 10.0813 4.224 9.91167 4.03446C8.92749 2.93446 7.36662 2.55582 5.98781 3.08259C4.609 3.60936 3.69822 4.93229 3.69819 6.4083C3.6985 7.73475 3.36215 9.03958 2.72065 10.2006C2.59729 10.4231 2.60198 10.6944 2.73295 10.9125C2.86393 11.1306 3.1013 11.2622 3.35564 11.2578C3.60998 11.2534 3.84265 11.1136 3.96601 10.8912C4.72459 9.51882 5.12242 7.97637 5.12225 6.4083C5.12358 5.22912 6.07917 4.27353 7.25835 4.2722ZM7.25835 4.24899e-06C6.53075 -0.000834624 5.80834 0.122546 5.12225 0.364833C4.8822 0.449453 4.70557 0.655777 4.65896 0.906008C4.61236 1.15624 4.70286 1.41232 4.89636 1.57769C5.08986 1.74306 5.35691 1.79256 5.59682 1.70754C7.12257 1.16998 8.81426 1.40568 10.135 2.33985C11.4556 3.27401 12.2413 4.79062 12.2426 6.4083C12.243 7.63291 12.1069 8.85375 11.8368 10.0482C11.7803 10.2963 11.8605 10.5558 12.0473 10.7287C12.234 10.9016 12.4989 10.9617 12.7419 10.8863C12.985 10.8109 13.1694 10.6115 13.2255 10.3633C13.5191 9.06547 13.6671 7.73894 13.6666 6.4083C13.6627 2.87075 10.7959 0.00399334 7.25835 4.24899e-06ZM3.93571 2.69302C4.12546 2.52342 4.21026 2.26544 4.15814 2.01634C4.10602 1.76723 3.92492 1.56488 3.68309 1.48558C3.44127 1.40627 3.1755 1.46206 2.98598 1.63192C1.62788 2.84838 0.851265 4.58506 0.850058 6.4083C0.851837 7.12502 0.697735 7.83354 0.398434 8.48477C0.292102 8.71601 0.317282 8.98642 0.46448 9.19405C0.611678 9.40167 0.858507 9.51495 1.1119 9.49115C1.3653 9.46736 1.58673 9.31011 1.6927 9.07871C2.07782 8.24126 2.27621 7.33006 2.27413 6.4083C2.27513 4.99008 2.87928 3.63922 3.93571 2.69302ZM6.52169 10.5081C6.35006 10.4293 6.15416 10.4219 5.9771 10.4876C5.80003 10.5532 5.6563 10.6865 5.57753 10.8582C5.46569 11.1018 5.34285 11.3446 5.21236 11.5799C5.08899 11.8024 5.0937 12.0738 5.22469 12.2919C5.35569 12.51 5.59307 12.6416 5.84743 12.6372C6.10179 12.6328 6.33447 12.493 6.45783 12.2705C6.60571 12.0038 6.74495 11.7285 6.8718 11.4522C6.95057 11.2806 6.95795 11.0847 6.89229 10.9076C6.82663 10.7306 6.69332 10.5868 6.52169 10.5081H6.52169ZM7.25765 5.69621C6.86442 5.69621 6.54564 6.01501 6.54562 6.40824C6.54612 7.30906 6.43308 8.20634 6.20919 9.07889C6.14578 9.32524 6.21862 9.58671 6.40026 9.7648C6.5819 9.94289 6.84476 10.0105 7.08981 9.94229C7.33486 9.87402 7.52488 9.68021 7.58829 9.43386C7.84203 8.44535 7.97017 7.4288 7.96969 6.40824C7.96967 6.01501 7.65089 5.69621 7.25766 5.69621H7.25765Z" fill="#04086A"/>
</g>
</svg>
