<svg width="16" height="16" viewBox="0 0 16 16" fill="none" xmlns="http://www.w3.org/2000/svg">
<g id="chat 1" clip-path="url(#clip0_52_430)">
<g id="Chat Ai">
<path id="Vector" d="M3.5 14.455L1.635 15C1.55915 15.0214 1.47934 15.0245 1.40206 15.0091C1.32479 14.9937 1.25224 14.9603 1.19034 14.9115C1.12843 14.8628 1.07892 14.8001 1.04585 14.7286C1.01277 14.6571 0.997063 14.5788 1 14.5V12.315C0.467607 11.5129 0.136064 10.5944 0.033374 9.63708C-0.0693156 8.6798 0.0598644 7.71187 0.410004 6.81503C0.43001 6.74922 0.463379 6.68824 0.508026 6.63591C0.552672 6.58359 0.607635 6.54104 0.669477 6.51092C0.731319 6.4808 0.79871 6.46377 0.867435 6.46089C0.93616 6.45801 1.00474 6.46933 1.06889 6.49417C1.13303 6.519 1.19137 6.5568 1.24024 6.6052C1.28911 6.6536 1.32747 6.71157 1.35292 6.77548C1.37836 6.83938 1.39035 6.90785 1.38813 6.9766C1.38591 7.04535 1.36952 7.1129 1.34 7.17503C1.04107 7.94319 0.936675 8.77334 1.03612 9.5916C1.13557 10.4099 1.43577 11.1908 1.91 11.865C2.05 12.07 2 12.195 2 13.835C3.5 13.405 3.53 13.335 3.76 13.47C4.58854 13.885 5.51609 14.0615 6.43912 13.9799C7.36216 13.8983 8.24436 13.5619 8.98729 13.0081C9.73021 12.4542 10.3046 11.7049 10.6464 10.8436C10.9882 9.98227 11.0839 9.04294 10.9229 8.13041C10.7618 7.21787 10.3504 6.36804 9.73444 5.67576C9.11849 4.98347 8.32228 4.47597 7.43467 4.2099C6.54706 3.94382 5.60297 3.92963 4.70777 4.16892C3.81257 4.40821 3.00147 4.89156 2.365 5.56503C2.32183 5.61827 2.26817 5.66207 2.20735 5.6937C2.14654 5.72533 2.07987 5.74412 2.01149 5.7489C1.94311 5.75367 1.87447 5.74434 1.80985 5.72147C1.74523 5.69861 1.686 5.6627 1.63584 5.61597C1.58568 5.56925 1.54566 5.51271 1.51828 5.44987C1.49089 5.38703 1.47672 5.31923 1.47664 5.25068C1.47656 5.18213 1.49058 5.1143 1.51782 5.0514C1.54507 4.9885 1.58495 4.93187 1.635 4.88503C2.392 4.08211 3.35575 3.50351 4.42029 3.21285C5.48482 2.92219 6.60889 2.93074 7.66888 3.23755C8.72887 3.54436 9.68371 4.13756 10.4284 4.95189C11.1731 5.76623 11.6788 6.77016 11.8899 7.85329C12.101 8.93641 12.0092 10.0568 11.6248 11.0911C11.2404 12.1255 10.5782 13.0339 9.71096 13.7162C8.84375 14.3986 7.80514 14.8286 6.70937 14.959C5.61359 15.0893 4.5031 14.9149 3.5 14.455Z" fill="#04086A"/>
<g id="Group">
<path id="Vector_2" d="M6.5 11.5C6.39784 11.5003 6.29802 11.4694 6.214 11.4113C6.12997 11.3532 6.06575 11.2707 6.03 11.175L5 8.42502L3.97 11.175C3.94702 11.2367 3.9121 11.2933 3.86725 11.3416C3.8224 11.3898 3.76849 11.4287 3.70859 11.4561C3.58763 11.5114 3.44965 11.5164 3.325 11.47C3.26328 11.447 3.20669 11.4121 3.15846 11.3673C3.11023 11.3224 3.07131 11.2685 3.04391 11.2086C2.98859 11.0877 2.98358 10.9497 3.03 10.825L4.53 6.82502C4.56503 6.72849 4.62893 6.64509 4.71302 6.58616C4.79711 6.52722 4.89731 6.49561 5 6.49561C5.10268 6.49561 5.20288 6.52722 5.28697 6.58616C5.37106 6.64509 5.43496 6.72849 5.47 6.82502L6.97 10.825C6.9983 10.9008 7.00781 10.9823 6.9977 11.0625C6.98759 11.1428 6.95817 11.2194 6.91195 11.2857C6.86574 11.3521 6.80411 11.4063 6.73236 11.4436C6.66061 11.4809 6.58087 11.5003 6.5 11.5Z" fill="#04086A"/>
<path id="Vector_3" d="M8 11.5C7.86739 11.5 7.74021 11.4473 7.64645 11.3536C7.55268 11.2598 7.5 11.1326 7.5 11V7C7.5 6.86739 7.55268 6.74021 7.64645 6.64645C7.74021 6.55268 7.86739 6.5 8 6.5C8.13261 6.5 8.25979 6.55268 8.35355 6.64645C8.44732 6.74021 8.5 6.86739 8.5 7V11C8.5 11.1326 8.44732 11.2598 8.35355 11.3536C8.25979 11.4473 8.13261 11.5 8 11.5Z" fill="#04086A"/>
<path id="Vector_4" d="M6 10.5H4C3.86739 10.5 3.74021 10.4473 3.64645 10.3536C3.55268 10.2598 3.5 10.1326 3.5 10C3.5 9.86739 3.55268 9.74021 3.64645 9.64645C3.74021 9.55268 3.86739 9.5 4 9.5H6C6.13261 9.5 6.25979 9.55268 6.35355 9.64645C6.44732 9.74021 6.5 9.86739 6.5 10C6.5 10.1326 6.44732 10.2598 6.35355 10.3536C6.25979 10.4473 6.13261 10.5 6 10.5Z" fill="#04086A"/>
</g>
<path id="Vector_5" d="M10.25 13C10.1558 12.9994 10.0637 12.9722 9.98431 12.9215C9.90491 12.8709 9.84144 12.7988 9.8012 12.7136C9.76097 12.6284 9.74561 12.5336 9.7569 12.4401C9.76819 12.3466 9.80567 12.2582 9.86501 12.185C10.4698 11.4531 10.8538 10.5641 10.9719 9.622C11.09 8.67989 10.9374 7.72363 10.532 6.86505C10.1266 6.00648 9.48504 5.28109 8.68248 4.77373C7.87992 4.26636 6.94949 3.998 6.00001 4.00003H5.81001C5.71165 4.01094 5.61227 3.99242 5.52445 3.94682C5.43663 3.90121 5.36431 3.83057 5.31666 3.74383C5.26901 3.6571 5.24817 3.55818 5.25678 3.4596C5.26538 3.36101 5.30305 3.2672 5.36501 3.19003C6.15019 2.23485 7.21131 1.54558 8.4032 1.21651C9.59509 0.887437 10.8595 0.934639 12.0236 1.35166C13.1876 1.76867 14.1944 2.53514 14.9062 3.54621C15.618 4.55727 16 5.76355 16 7.00003C16 10.405 13.165 13 10.25 13ZM6.91001 3.06503C7.86004 3.20939 8.76151 3.57981 9.53856 4.14515C10.3156 4.71048 10.9455 5.45418 11.3752 6.31367C11.805 7.17316 12.022 8.12329 12.008 9.08413C11.9941 10.045 11.7495 10.9884 11.295 11.835C12.0089 11.6406 12.6707 11.2901 13.2328 10.8089C13.7948 10.3277 14.2431 9.72779 14.5452 9.05238C14.8473 8.37697 14.9958 7.64293 14.9799 6.9032C14.9639 6.16347 14.784 5.4365 14.4532 4.77471C14.1223 4.11293 13.6486 3.53282 13.0664 3.07625C12.4842 2.61968 11.8078 2.29802 11.0863 2.13446C10.3647 1.97091 9.61575 1.96955 8.89356 2.13047C8.17137 2.29139 7.4939 2.61059 6.91001 3.06503Z" fill="#04086A"/>
</g>
</g>
<defs>
<clipPath id="clip0_52_430">
<rect width="16" height="16" fill="white"/>
</clipPath>
</defs>
</svg>
