<svg width="22" height="22" viewBox="0 0 22 22" fill="none" xmlns="http://www.w3.org/2000/svg">
<path d="M3.96877 19.7498C3.01313 19.7425 2.244 18.9625 2.25004 18.0123V8.45033C2.244 7.49468 3.01313 6.71469 3.97523 6.70737L7.51921 6.7085L7.51925 3.993C7.51346 3.09123 8.19799 2.34571 9.08476 2.25846L9.24324 2.25H12.7568C13.7189 2.25732 14.488 3.03732 14.4819 3.98756L14.4819 4.92578L14.5135 4.92465L18.0334 4.92468C18.9882 4.93319 19.756 5.71282 19.75 6.66221V18.0069C19.756 18.9625 18.9869 19.7425 18.0248 19.7498H3.96877ZM7.48762 8.4009L3.9817 8.40088C3.96051 8.40104 3.94358 8.41834 3.94358 8.44494V18.0176C3.94358 18.0389 3.96051 18.0562 3.97523 18.0563L7.51837 18.056L7.51923 8.44489L7.51438 8.42012L7.50239 8.40627L7.48762 8.4009ZM9.21237 18.056H12.7867L12.7872 6.66217L12.7876 6.64775L12.7884 3.98214C12.7885 3.96802 12.7809 3.95563 12.7696 3.94888L12.7503 3.9435H9.25079C9.22962 3.94369 9.21261 3.96097 9.21276 3.98756L9.21237 18.056ZM18.0259 6.61818L14.52 6.61816C14.4988 6.61832 14.4817 6.63561 14.4819 6.65679L14.4808 6.667V18.056L18.0183 18.0563C18.0324 18.0562 18.0447 18.0485 18.0512 18.0355L18.0564 18.0123V6.65681C18.0564 6.63563 18.0395 6.61834 18.0259 6.61818Z" fill="#04086A"/>
</svg>
