<svg width="22" height="22" viewBox="0 0 22 22" fill="none" xmlns="http://www.w3.org/2000/svg">
<path d="M11.3196 3.12508C11.9053 3.12015 12.4689 3.34837 12.8861 3.75948C13.2621 4.12993 13.4913 4.62144 13.5356 5.1474L17.5262 5.14724C18.1119 5.14231 18.6755 5.37054 19.0927 5.78161C19.5099 6.19272 19.7464 6.75293 19.75 7.34386V14.9213C19.7464 15.507 19.5099 16.0672 19.0927 16.4783C18.6755 16.8894 18.1119 17.1176 17.5334 17.1127L17.2537 17.1124L17.2547 17.3073C17.2633 17.9 17.0357 18.4718 16.6222 18.8964C16.2087 19.3211 15.6432 19.5638 15.0402 19.571H4.45802C3.86591 19.5647 3.30058 19.3233 2.88652 18.9C2.47251 18.4768 2.24368 17.9064 2.25013 17.3238L2.25032 9.47981C2.24368 8.88778 2.47251 8.31734 2.88652 7.8941C3.30058 7.47081 3.86591 7.22944 4.46699 7.22313L4.74539 7.22227L4.74669 5.31649C4.75031 4.73168 4.9861 4.17225 5.40219 3.76129C5.81829 3.35033 6.3806 3.1215 6.96014 3.12508H11.3196ZM4.74539 8.9158L4.47595 8.9166C4.33323 8.91811 4.19696 8.97629 4.09716 9.07832C3.99733 9.18037 3.94214 9.31796 3.94371 9.47031V17.3333C3.94214 17.4762 3.99733 17.6138 4.09716 17.7158C4.19696 17.8179 4.33323 17.876 4.46699 17.8776H15.03C15.1729 17.8758 15.3092 17.8173 15.4089 17.715C15.5085 17.6126 15.5634 17.4748 15.5613 17.3196L15.5602 17.1124L6.96937 17.1127C6.38371 17.1176 5.82013 16.8894 5.40295 16.4783C4.98575 16.0672 4.74925 15.507 4.74562 14.916L4.74539 8.9158ZM17.5334 6.84071L6.43892 6.84292L6.43913 14.9108C6.43997 15.0467 6.49483 15.1766 6.59161 15.272C6.6884 15.3674 6.81919 15.4203 6.96225 15.4192H17.5405C17.6764 15.4203 17.8072 15.3674 17.904 15.272C18.0008 15.1766 18.0557 15.0467 18.0565 14.916V7.34909C18.0557 7.21322 18.0008 7.08326 17.904 6.98789C17.8072 6.89252 17.6764 6.83956 17.5334 6.84071ZM11.3268 4.81865L6.95487 4.81863C6.8192 4.81779 6.68876 4.87087 6.59224 4.9662C6.53904 5.01875 6.49854 5.08176 6.47277 5.14958L11.8171 5.14974C11.7913 5.08113 11.7507 5.01822 11.6975 4.96577C11.6007 4.8704 11.47 4.81746 11.3268 4.81865Z" fill="#04086A"/>
</svg>
