<svg width="12" height="15" viewBox="0 0 12 15" fill="none" xmlns="http://www.w3.org/2000/svg">
<g id="Symbols">
<g id="Molecules/3rd-column/tasks-full">
<g id="Group-2">
<g id="Group-18">
<g id="Group-27">
<g id="Vector">
<path id="Vector_2" fill-rule="evenodd" clip-rule="evenodd" d="M7.13179 2.03635C7.13179 2.49398 6.91424 2.89354 6.59088 3.10731V3.27271H10.3772C11.2735 3.27271 12 4.10303 12 5.12726V12.5454C12 13.5697 11.2735 14.4 10.3772 14.4H1.7227C0.826498 14.4 0.0999756 13.5697 0.0999756 12.5454V5.12726C0.0999756 4.10303 0.826498 3.27271 1.7227 3.27271H5.50907V3.10731C5.18571 2.89354 4.96816 2.49398 4.96816 2.03635C4.96816 1.35353 5.45249 0.799988 6.04998 0.799988C6.64746 0.799988 7.13179 1.35353 7.13179 2.03635ZM1.7227 4.50908H5.50907H6.59088H10.3772C10.676 4.50908 10.9182 4.78585 10.9182 5.12726V12.5454C10.9182 12.8869 10.676 13.1636 10.3772 13.1636H1.7227C1.42397 13.1636 1.18179 12.8869 1.18179 12.5454V5.12726C1.18179 4.78585 1.42397 4.50908 1.7227 4.50908ZM7.6727 7.90908C7.6727 7.39698 8.03598 6.98181 8.48407 6.98181C8.93215 6.98181 9.29543 7.39698 9.29543 7.90908C9.29543 8.42118 8.93215 8.83635 8.48407 8.83635C8.03598 8.83635 7.6727 8.42118 7.6727 7.90908ZM8.48407 5.74544C7.43849 5.74544 6.59088 6.71413 6.59088 7.90908C6.59088 9.10402 7.43849 10.0727 8.48407 10.0727C9.52964 10.0727 10.3772 9.10402 10.3772 7.90908C10.3772 6.71413 9.52964 5.74544 8.48407 5.74544ZM3.61588 6.98181C3.16778 6.98181 2.80452 7.39698 2.80452 7.90908C2.80452 8.42118 3.16778 8.83635 3.61588 8.83635C4.06399 8.83635 4.42725 8.42118 4.42725 7.90908C4.42725 7.39698 4.06399 6.98181 3.61588 6.98181ZM1.7227 7.90908C1.7227 6.71413 2.57031 5.74544 3.61588 5.74544C4.66146 5.74544 5.50907 6.71413 5.50907 7.90908C5.50907 9.10402 4.66146 10.0727 3.61588 10.0727C2.57031 10.0727 1.7227 9.10402 1.7227 7.90908ZM5.45195 11.0326C5.31834 10.7272 4.99347 10.6035 4.72626 10.7562C4.45906 10.9089 4.35075 11.2801 4.48435 11.5855C4.79535 12.2964 5.49944 12.5454 6.04998 12.5454C6.60051 12.5454 7.30461 12.2964 7.61558 11.5855C7.74919 11.2801 7.6409 10.9089 7.37369 10.7562C7.10648 10.6035 6.78161 10.7272 6.648 11.0326C6.5984 11.146 6.40092 11.3091 6.04998 11.3091C5.69903 11.3091 5.50155 11.146 5.45195 11.0326Z" fill="#04086A"/>
</g>
</g>
</g>
</g>
</g>
</g>
</svg>
