<svg width="22" height="22" viewBox="0 0 22 22" fill="none" xmlns="http://www.w3.org/2000/svg">
<path d="M2.25 7.35887C2.25 6.89121 2.62911 6.5121 3.09677 6.5121C3.56443 6.5121 3.94355 6.89121 3.94355 7.35887V7.43903L18.0565 4.41548V3.97177C18.0565 3.50411 18.4356 3.125 18.9032 3.125C19.3709 3.125 19.75 3.50411 19.75 3.97177V18.6492C19.75 19.1169 19.3709 19.496 18.9032 19.496C18.4356 19.496 18.0565 19.1169 18.0565 18.6492V18.2044L12.8557 17.0908C12.491 18.3862 11.3539 19.376 9.94087 19.4931L9.79903 19.4929C7.98731 19.3384 6.63653 17.756 6.76613 16.0039L6.76613 15.7848L3.94355 15.1808V15.2621C3.94355 15.7298 3.56443 16.1089 3.09677 16.1089C2.62911 16.1089 2.25 15.7298 2.25 15.2621V7.35887ZM11.1924 16.7348L8.45516 16.1473L8.45745 16.0653C8.39663 16.9019 8.97953 17.6381 9.78865 17.785L9.87323 17.7956L9.95234 17.7857C10.5349 17.6821 11.0016 17.2708 11.1924 16.7348ZM18.0565 6.14742L3.94355 9.1721V13.4477L18.0565 16.4724V6.14742Z" fill="#04086A"/>
</svg>
