<svg width="15" height="15" viewBox="0 0 15 15" fill="none" xmlns="http://www.w3.org/2000/svg">
<g id="franchise 1" clip-path="url(#clip0_52_413)">
<g id="Group">
<path id="Vector" d="M9.31369 6.26635L10.2551 4.14818C10.3258 3.98907 10.2959 3.80324 10.1789 3.67431C10.0618 3.54543 9.8797 3.49776 9.71456 3.55281L8.59313 3.92661L7.84313 2.98917C7.67596 2.77117 7.32399 2.7712 7.15682 2.98917L6.40682 3.92661L5.28545 3.55281C4.92657 3.43138 4.58954 3.80286 4.74493 4.14818L5.68632 6.26635C5.75684 6.42505 5.91422 6.52733 6.0879 6.52733H8.91212C9.08579 6.52733 9.24317 6.42505 9.31369 6.26635ZM6.37348 5.64842L5.95272 4.70169L6.41965 4.85732C6.59435 4.91553 6.78677 4.85869 6.90176 4.71493L7.50001 3.96713L8.09825 4.7149C8.21327 4.85869 8.40569 4.91556 8.58036 4.85729L9.04729 4.70166L8.62653 5.64842H6.37348Z" fill="#04086A"/>
<path id="Vector_2" d="M14.5605 11.2969H13.9409V9.85349C13.9409 9.61079 13.7442 9.41403 13.5015 9.41403H7.93945V8.41012H11.7363C11.979 8.41012 12.1758 8.21336 12.1758 7.97066V1.38086C12.1758 1.13816 11.979 0.941406 11.7363 0.941406H3.26367C3.02098 0.941406 2.82422 1.13816 2.82422 1.38086V7.97069C2.82422 8.21339 3.02098 8.41015 3.26367 8.41015H7.06055V9.41406H1.49854C1.25584 9.41406 1.05908 9.61082 1.05908 9.85352V11.2969H0.439453C0.196758 11.2969 0 11.4936 0 11.7363V13.6191C0 13.8618 0.196758 14.0586 0.439453 14.0586H2.55762C2.80031 14.0586 2.99707 13.8618 2.99707 13.6191V11.7363C2.99707 11.4936 2.80031 11.2969 2.55762 11.2969H1.93799V10.2929H5.06007V11.2969H4.44044C4.19774 11.2969 4.00099 11.4936 4.00099 11.7363V13.6191C4.00099 13.8618 4.19774 14.0586 4.44044 14.0586H6.5586C6.8013 14.0586 6.99806 13.8618 6.99806 13.6191V11.7363C6.99806 11.4936 6.8013 11.2969 6.5586 11.2969H5.93897V10.2929H9.06102V11.2969H8.4414C8.1987 11.2969 8.00194 11.4936 8.00194 11.7363V13.6191C8.00194 13.8618 8.1987 14.0586 8.4414 14.0586H10.5596C10.8023 14.0586 10.999 13.8618 10.999 13.6191V11.7363C10.999 11.4936 10.8023 11.2969 10.5596 11.2969H9.93993V10.2929H13.062V11.2969H12.4424C12.1997 11.2969 12.0029 11.4936 12.0029 11.7363V13.6191C12.0029 13.8618 12.1997 14.0586 12.4424 14.0586H14.5605C14.8032 14.0586 15 13.8618 15 13.6191V11.7363C15 11.4936 14.8032 11.2969 14.5605 11.2969ZM3.70312 1.82031H11.2969V7.53124H3.70312V1.82031ZM2.11816 13.1796H0.878906V12.1758H2.11816V13.1796ZM6.11915 13.1796H4.87989V12.1758H6.11915V13.1796ZM10.1201 13.1796H8.88085V12.1758H10.1201V13.1796ZM14.1211 13.1796H12.8818V12.1758H14.1211V13.1796Z" fill="#04086A"/>
</g>
</g>
<defs>
<clipPath id="clip0_52_413">
<rect width="15" height="15" fill="white"/>
</clipPath>
</defs>
</svg>
