<svg width="24" height="24" viewBox="0 0 24 24" fill="none" xmlns="http://www.w3.org/2000/svg">
<g id="chat 2" clip-path="url(#clip0_7_606)">
<path id="Vector" d="M21.9131 20.1039C23.263 18.6556 23.9988 16.8651 23.9988 14.9997C23.9988 12.6656 22.8458 10.5517 20.9991 9.05188C20.957 14.3998 15.9278 18.7493 9.75028 18.7493H5.56946C7.18648 21.4162 10.4721 23.2489 14.2498 23.2489H23.2489C23.5536 23.2489 23.8254 23.0661 23.9426 22.7849C24.0598 22.5036 23.9941 22.1802 23.7785 21.9693L21.9131 20.1039Z" fill="#64B5F6"/>
<path id="Vector_2" d="M9.75023 0.75116C4.37421 0.75116 0.00121989 4.44922 0.00121989 9.00032C0.00121989 10.8658 0.737083 12.6515 2.08695 14.1045L0.22151 15.9699C0.00590692 16.1855 -0.0597114 16.5089 0.0574642 16.7855C0.17464 17.0667 0.446487 17.2495 0.751144 17.2495H9.75023C15.1262 17.2495 19.4992 13.5514 19.4992 9.00032C19.4992 4.44922 15.1262 0.75116 9.75023 0.75116Z" fill="#2196F3"/>
<g id="Group">
<path id="Vector_3" d="M14.2497 6.75055H5.25066C4.8382 6.75055 4.50073 7.08802 4.50073 7.50047C4.50073 7.91293 4.8382 8.2504 5.25066 8.2504H14.2497C14.6622 8.2504 14.9997 7.91293 14.9997 7.50047C14.9997 7.08802 14.6622 6.75055 14.2497 6.75055Z" fill="#FAFAFA"/>
<path id="Vector_4" d="M11.25 9.75024H5.25066C4.8382 9.75024 4.50073 10.0877 4.50073 10.5002C4.50073 10.9126 4.8382 11.2501 5.25066 11.2501H11.25C11.6625 11.2501 12 10.9126 12 10.5002C12 10.0877 11.6625 9.75024 11.25 9.75024Z" fill="#FAFAFA"/>
</g>
</g>
<defs>
<clipPath id="clip0_7_606">
<rect width="24" height="24" fill="white"/>
</clipPath>
</defs>
</svg>
