<svg width="22" height="22" viewBox="0 0 22 22" fill="none" xmlns="http://www.w3.org/2000/svg">
<path d="M14.2192 1.37543C17.2381 1.34055 19.714 3.759 19.75 6.78795V12.3412C19.7334 13.7914 19.1414 15.1756 18.1041 16.1893C17.0669 17.203 15.6695 17.763 14.229 17.7463L13.9581 17.746L12.3263 19.4499C12.0201 19.7602 11.6162 19.9518 11.1862 19.9948L11.0006 20.0041C10.5023 20.0041 10.0248 19.8045 9.66609 19.441L8.04081 17.746L7.78075 17.7463C6.42722 17.7619 5.11965 17.2751 4.10802 16.3859L3.89586 16.1893C2.85863 15.1756 2.26661 13.7914 2.25 12.3315V6.77787C2.286 3.759 4.76186 1.34055 7.77097 1.37537L14.2192 1.37543ZM14.2388 3.06886H7.76118C5.67732 3.04478 3.9683 4.71418 3.94349 6.78795V12.3218C3.95492 13.3229 4.36358 14.2784 5.07955 14.9781C5.79552 15.6778 6.76015 16.0644 7.77097 16.0528H8.40323C8.63404 16.0528 8.85485 16.147 9.01456 16.3136L10.88 18.2602C10.9119 18.2924 10.9553 18.3106 11.0006 18.3106C11.0459 18.3106 11.0893 18.2924 11.1122 18.2693L12.9853 16.3138C13.145 16.1471 13.3659 16.0528 13.5968 16.0528L14.2388 16.0528C15.2399 16.0644 16.2045 15.6778 16.9204 14.9781C17.6364 14.2784 18.0451 13.3229 18.0565 12.3315V6.79803C18.0317 4.71418 16.3227 3.04478 14.2388 3.06886ZM14.3871 10.4077C14.8548 10.4077 15.2339 10.7868 15.2339 11.2544C15.2339 11.7221 14.8548 12.1012 14.3871 12.1012H7.6129C7.14524 12.1012 6.76613 11.7221 6.76613 11.2544C6.76613 10.7868 7.14524 10.4077 7.6129 10.4077H14.3871ZM14.3871 7.02056C14.8548 7.02056 15.2339 7.39968 15.2339 7.86734C15.2339 8.335 14.8548 8.71411 14.3871 8.71411H7.6129C7.14524 8.71411 6.76613 8.335 6.76613 7.86734C6.76613 7.39968 7.14524 7.02056 7.6129 7.02056H14.3871Z" fill="#04086A"/>
</svg>
