<svg width="14" height="12" viewBox="0 0 14 12" fill="none" xmlns="http://www.w3.org/2000/svg">
<g id="Icon/Contact-card">
<path id="Combined-Shape" d="M11.6834 0.666626C12.7787 0.666626 13.6666 1.55457 13.6666 2.6499V9.34046C13.6666 10.4358 12.7787 11.3237 11.6834 11.3237H2.31659C1.22125 11.3237 0.333313 10.4358 0.333313 9.34046V2.6499C0.333313 1.55457 1.22125 0.666626 2.31659 0.666626H11.6834ZM11.6834 1.95695H2.31659C1.93388 1.95695 1.62364 2.26719 1.62364 2.6499V9.34046C1.62364 9.72317 1.93388 10.0334 2.31659 10.0334H11.6834C12.0661 10.0334 12.3763 9.72317 12.3763 9.34046V2.6499C12.3763 2.26719 12.0661 1.95695 11.6834 1.95695ZM8.14724 8.23833C8.38642 8.50244 8.36622 8.91043 8.10211 9.14961C7.83801 9.38879 7.43001 9.36858 7.19083 9.10448C5.89828 7.67723 4.19336 7.52806 2.7992 9.09956C2.56274 9.3661 2.15497 9.39048 1.88843 9.15402C1.62189 8.91756 1.59751 8.50979 1.83397 8.24325C3.77823 6.05168 6.37252 6.27867 8.14724 8.23833ZM11.0143 6.01908C11.3706 6.01908 11.6595 6.30792 11.6595 6.66424C11.6595 7.02055 11.3706 7.3094 11.0143 7.3094H9.00715C8.65084 7.3094 8.36199 7.02055 8.36199 6.66424C8.36199 6.30792 8.65084 6.01908 9.00715 6.01908H11.0143ZM4.99281 2.67379C5.51881 2.67379 6.02326 2.88275 6.3952 3.25468C6.76713 3.62662 6.97609 4.13107 6.97609 4.65707C6.97609 5.7524 6.08814 6.64034 4.99281 6.64034C3.89748 6.64034 3.00954 5.7524 3.00954 4.65707C3.00954 3.56174 3.89748 2.67379 4.99281 2.67379ZM4.99281 3.96412C4.61011 3.96412 4.29986 4.27436 4.29986 4.65707C4.29986 5.03977 4.61011 5.35002 4.99281 5.35002C5.37552 5.35002 5.68576 5.03977 5.68576 4.65707C5.68576 4.47329 5.61276 4.29703 5.4828 4.16708C5.35285 4.03712 5.17659 3.96412 4.99281 3.96412ZM11.0143 4.01191C11.3706 4.01191 11.6595 4.30076 11.6595 4.65707C11.6595 5.01338 11.3706 5.30223 11.0143 5.30223H9.00715C8.65084 5.30223 8.36199 5.01338 8.36199 4.65707C8.36199 4.30076 8.65084 4.01191 9.00715 4.01191H11.0143Z" fill="#04086A"/>
</g>
</svg>
