<svg width="22" height="22" viewBox="0 0 22 22" fill="none" xmlns="http://www.w3.org/2000/svg">
<path d="M19.7495 16.6736L19.7497 16.6846C19.7285 18.3812 18.3467 19.7499 16.6451 19.7499H7.61289C5.89814 19.7499 4.50806 18.3599 4.50806 16.6451L4.5075 15.2332L3.09677 15.2338C2.62911 15.2338 2.25 14.8547 2.25 14.3871C2.25 13.9194 2.62911 13.5403 3.09677 13.5403L4.5075 13.5401V11.8461L3.09677 11.8467C2.62911 11.8467 2.25 11.4676 2.25 11C2.25 10.5323 2.62911 10.1532 3.09677 10.1532L4.5075 10.153V8.459L3.09677 8.45966C2.62911 8.45966 2.25 8.08055 2.25 7.61289C2.25 7.14523 2.62911 6.76612 3.09677 6.76612L4.5075 6.76587L4.50806 5.35483C4.50806 3.69724 5.80701 2.34303 7.44253 2.25459L7.61289 2.25H16.6451C18.3599 2.25 19.7499 3.64008 19.7499 5.35483L19.7495 16.6736ZM6.33328 16.9908L6.25806 17.0416C6.4294 17.628 6.97112 18.0564 7.61289 18.0564H16.6451C17.2869 18.0564 17.8286 17.628 17.9999 17.0416C14.4814 14.6573 9.86656 14.6406 6.33328 16.9908ZM16.6451 3.94354H7.61289C6.83346 3.94354 6.2016 4.5754 6.2016 5.35483L6.20174 15.0882C9.88093 13.0332 14.3777 13.0333 18.0568 15.0885L18.0564 5.35483C18.0564 4.5754 17.4246 3.94354 16.6451 3.94354ZM12.129 5.63709C13.8438 5.63709 15.2338 7.02717 15.2338 8.74192C15.2338 10.4567 13.8438 11.8467 12.129 11.8467C10.4143 11.8467 9.02417 10.4567 9.02417 8.74192C9.02417 7.02717 10.4143 5.63709 12.129 5.63709ZM12.129 7.33063C11.3496 7.33063 10.7177 7.96248 10.7177 8.74192C10.7177 9.52135 11.3496 10.1532 12.129 10.1532C12.9084 10.1532 13.5403 9.52135 13.5403 8.74192C13.5403 7.96248 12.9084 7.33063 12.129 7.33063Z" fill="#04086A"/>
</svg>
