<svg width="16" height="16" viewBox="0 0 16 16" fill="none" xmlns="http://www.w3.org/2000/svg">
<g id="dashboard 1" clip-path="url(#clip0_129_468)">
<path id="Vector" d="M6.31943 5.55555H1.73609C1.14639 5.55555 0.666687 5.07585 0.666687 4.48603V1.73603C0.666687 1.14633 1.14639 0.666626 1.73609 0.666626H6.31943C6.90924 0.666626 7.38895 1.14633 7.38895 1.73603V4.48603C7.38895 5.07585 6.90924 5.55555 6.31943 5.55555ZM1.73609 1.58329C1.65184 1.58329 1.58335 1.65177 1.58335 1.73603V4.48603C1.58335 4.5704 1.65184 4.63889 1.73609 4.63889H6.31943C6.4038 4.63889 6.47228 4.5704 6.47228 4.48603V1.73603C6.47228 1.65177 6.4038 1.58329 6.31943 1.58329H1.73609Z" fill="#04086A"/>
<path id="Vector_2" d="M6.31943 15.3333H1.73609C1.14639 15.3333 0.666687 14.8536 0.666687 14.2639V7.84723C0.666687 7.25742 1.14639 6.77771 1.73609 6.77771H6.31943C6.90924 6.77771 7.38895 7.25742 7.38895 7.84723V14.2639C7.38895 14.8536 6.90924 15.3333 6.31943 15.3333ZM1.73609 7.69438C1.65184 7.69438 1.58335 7.76286 1.58335 7.84723V14.2639C1.58335 14.3482 1.65184 14.4166 1.73609 14.4166H6.31943C6.4038 14.4166 6.47228 14.3482 6.47228 14.2639V7.84723C6.47228 7.76286 6.4038 7.69438 6.31943 7.69438H1.73609Z" fill="#04086A"/>
<path id="Vector_3" d="M14.2639 15.3333H9.6806C9.09079 15.3333 8.61108 14.8536 8.61108 14.2639V11.5139C8.61108 10.924 9.09079 10.4443 9.6806 10.4443H14.2639C14.8536 10.4443 15.3333 10.924 15.3333 11.5139V14.2639C15.3333 14.8536 14.8536 15.3333 14.2639 15.3333ZM9.6806 11.361C9.59623 11.361 9.52775 11.4295 9.52775 11.5139V14.2639C9.52775 14.3481 9.59623 14.4166 9.6806 14.4166H14.2639C14.3482 14.4166 14.4167 14.3481 14.4167 14.2639V11.5139C14.4167 11.4295 14.3482 11.361 14.2639 11.361H9.6806Z" fill="#04086A"/>
<path id="Vector_4" d="M14.2639 9.22222H9.6806C9.09079 9.22222 8.61108 8.74251 8.61108 8.1527V1.73603C8.61108 1.14633 9.09079 0.666626 9.6806 0.666626H14.2639C14.8536 0.666626 15.3333 1.14633 15.3333 1.73603V8.1527C15.3333 8.74251 14.8536 9.22222 14.2639 9.22222ZM9.6806 1.58329C9.59623 1.58329 9.52775 1.65177 9.52775 1.73603V8.1527C9.52775 8.23707 9.59623 8.30555 9.6806 8.30555H14.2639C14.3482 8.30555 14.4167 8.23707 14.4167 8.1527V1.73603C14.4167 1.65177 14.3482 1.58329 14.2639 1.58329H9.6806Z" fill="#04086A"/>
</g>
<defs>
<clipPath id="clip0_129_468">
<rect width="14.6667" height="14.6667" fill="white" transform="translate(0.666687 0.666626)"/>
</clipPath>
</defs>
</svg>
