<svg width="16" height="16" viewBox="0 0 16 16" fill="none" xmlns="http://www.w3.org/2000/svg">
<g id="directions 1">
<path id="Vector" fill-rule="evenodd" clip-rule="evenodd" d="M2 3.33329C2 1.86053 3.19391 0.666626 4.66667 0.666626C5.90923 0.666626 6.95327 1.51647 7.24933 2.66663H11C12.6569 2.66663 14 4.00977 14 5.66663C14 7.32349 12.6569 8.66663 11 8.66663H5C4.07953 8.66663 3.33333 9.41283 3.33333 10.3333C3.33333 11.2538 4.07953 12 5 12H11.7871L10.8791 11.1546C10.6096 10.9037 10.5945 10.4818 10.8454 10.2124C11.0963 9.94289 11.5181 9.92783 11.7876 10.1787L13.6827 11.943C14.1057 12.3368 14.1057 12.9964 13.6827 13.3903L11.7876 15.1546C11.5181 15.4054 11.0963 15.3904 10.8454 15.1209C10.5945 14.8514 10.6096 14.4296 10.8791 14.1787L11.7871 13.3333H5C3.34315 13.3333 2 11.9902 2 10.3333C2 8.67643 3.34315 7.33329 5 7.33329H11C11.9205 7.33329 12.6667 6.5871 12.6667 5.66663C12.6667 4.74615 11.9205 3.99996 11 3.99996H7.24933C6.95327 5.15011 5.90923 5.99996 4.66667 5.99996C3.19391 5.99996 2 4.80605 2 3.33329ZM4.66667 1.99996C3.93029 1.99996 3.33333 2.59691 3.33333 3.33329C3.33333 4.06967 3.93029 4.66663 4.66667 4.66663C5.40305 4.66663 6 4.06967 6 3.33329C6 2.59691 5.40305 1.99996 4.66667 1.99996Z" fill="#04086A"/>
</g>
</svg>
