<svg width="12" height="12" viewBox="0 0 12 12" fill="none" xmlns="http://www.w3.org/2000/svg">
<g id="Icon/filter">
<path id="Combined-Shape" d="M6.1445 7.44258C7.00323 6.6177 8.31659 6.4919 9.31629 7.13878C9.73068 7.40663 10.056 7.79212 10.251 8.24682C10.2994 8.36016 10.3388 8.47652 10.3692 8.59485L11.2298 8.59523C11.5631 8.59523 11.8333 8.86541 11.8333 9.19868C11.8333 9.53196 11.5631 9.80213 11.2298 9.80213L10.3689 9.80209C10.2569 10.2383 10.0267 10.6363 9.70148 10.9527C9.3458 11.2966 8.89767 11.5293 8.41289 11.6223C7.92632 11.7166 7.4229 11.6685 6.96487 11.4845C6.50493 11.3016 6.10924 10.987 5.82693 10.5794C5.65964 10.3372 5.5418 10.0738 5.47212 9.80216L0.770074 9.80213C0.436799 9.80213 0.166626 9.53196 0.166626 9.19868C0.166626 8.86541 0.436799 8.59523 0.770074 8.59523L5.47178 8.59482C5.58084 8.1675 5.80682 7.76632 6.1445 7.44258ZM8.66063 8.15205C8.1311 7.80941 7.43544 7.87604 6.98016 8.31337C6.54621 8.7294 6.47835 9.39887 6.81953 9.89284C6.96606 10.1044 7.17178 10.268 7.41278 10.3638C7.6572 10.462 7.92475 10.4876 8.18438 10.4373C8.43991 10.3882 8.67561 10.2658 8.86127 10.0864C9.04081 9.91167 9.16366 9.68703 9.21387 9.44156C9.26343 9.19941 9.238 8.9479 9.14137 8.72149C9.04134 8.4882 8.87406 8.29001 8.66063 8.15205ZM0.770074 3.82512C0.436799 3.82512 0.166626 3.55494 0.166626 3.22167C0.166626 2.88839 0.436799 2.61822 0.770074 2.61822L1.63072 2.61803C1.6612 2.49937 1.70076 2.38264 1.74932 2.26888C1.94388 1.81511 2.26925 1.42962 2.68363 1.16177C3.68333 0.514891 4.99669 0.640686 5.855 1.46516C6.193 1.78921 6.41914 2.19071 6.5282 2.6183L11.2298 2.61822C11.5631 2.61822 11.8333 2.88839 11.8333 3.22167C11.8333 3.55494 11.5631 3.82512 11.2298 3.82512L6.52781 3.82512C6.45814 4.0968 6.34031 4.36012 6.17303 4.60233C5.89211 5.00914 5.49748 5.32409 5.03902 5.50758C4.57813 5.69253 4.0736 5.74031 3.58808 5.64552C3.10226 5.55229 2.65412 5.31954 2.29703 4.97437C1.97927 4.6652 1.7518 4.27645 1.63753 3.85L1.63138 3.82475L0.770074 3.82512ZM3.33929 2.17504C3.12586 2.31299 2.95858 2.51119 2.85895 2.74355C2.76193 2.97089 2.7365 3.22239 2.78606 3.4646C2.83626 3.71001 2.95911 3.93466 3.13724 4.10797C3.32432 4.2888 3.56002 4.41122 3.81743 4.46062C4.07647 4.51119 4.3446 4.4858 4.59006 4.3873C4.82868 4.29179 5.03385 4.12805 5.17993 3.9165C5.52157 3.42186 5.45371 2.75239 5.01934 2.33595C4.56449 1.89903 3.86882 1.8324 3.33929 2.17504Z" fill="#FCFCFC"/>
</g>
</svg>
