<svg width="14" height="14" viewBox="0 0 14 14" fill="none" xmlns="http://www.w3.org/2000/svg">
<g id="Icon/information">
<path id="Combined-Shape" d="M7.86019 0.333313C11.067 0.333313 13.6666 2.93295 13.6666 6.13976V7.86019C13.6666 11.067 11.067 13.6666 7.86019 13.6666H6.13976C2.93295 13.6666 0.333313 11.067 0.333313 7.86019V6.13976C0.333313 2.93295 2.93295 0.333313 6.13976 0.333313H7.86019ZM7.86019 1.62364H6.13976C3.64558 1.62364 1.62364 3.64558 1.62364 6.13976V7.86019C1.62364 10.3544 3.64558 12.3763 6.13976 12.3763H7.86019C10.3544 12.3763 12.3763 10.3544 12.3763 7.86019V6.13976C12.3763 3.64558 10.3544 1.62364 7.86019 1.62364ZM6.99998 5.4946C7.35629 5.4946 7.64514 5.78345 7.64514 6.13976V9.79568H7.86019C8.21651 9.79568 8.50536 10.0845 8.50536 10.4408C8.50536 10.7972 8.21651 11.086 7.86019 11.086H6.13976C5.78345 11.086 5.4946 10.7972 5.4946 10.4408C5.4946 10.0845 5.78345 9.79568 6.13976 9.79568H6.35482V6.78493H6.13976C5.81315 6.78493 5.54321 6.54221 5.50049 6.22731L5.4946 6.13976C5.4946 5.78345 5.78345 5.4946 6.13976 5.4946H6.99998ZM6.99998 2.91396C7.35629 2.91396 7.64514 3.20281 7.64514 3.55912V4.41933C7.64514 4.77565 7.35629 5.0645 6.99998 5.0645C6.64367 5.0645 6.35482 4.77565 6.35482 4.41933V3.55912C6.35482 3.20281 6.64367 2.91396 6.99998 2.91396Z" fill="#04086A"/>
</g>
</svg>
