<svg width="12" height="12" viewBox="0 0 12 12" fill="none" xmlns="http://www.w3.org/2000/svg">
<g id="integration 1" clip-path="url(#clip0_52_421)">
<g id="Group">
<g id="Page-1_19_">
<g id="web_export_19_">
<path id="integration_x2C_-blocks_x2C_-elements_x2C_-external_x2C_-code_x2C_-development" d="M6.35295 5.64705H8.82354C9.01847 5.64705 9.17649 5.80507 9.17649 6V8.82354C9.17649 9.01847 9.01847 9.17649 8.82354 9.17649H3.17646C2.98153 9.17649 2.82351 9.01847 2.82351 8.82354V3.17646C2.82351 2.98153 2.98153 2.82352 3.17646 2.82352H6C6.19493 2.82352 6.35295 2.98153 6.35295 3.17646V5.64705ZM3.52941 8.47059H5.64705V6.35295H3.52941V8.47059ZM3.52941 3.52941V5.64705H5.64705V3.52941H3.52941ZM6.35295 8.47059H8.47059V6.35295H6.35295V8.47059ZM8.82354 0H11.6471C11.842 0 12 0.158015 12 0.352945V3.17648C12 3.37141 11.842 3.52943 11.6471 3.52943H8.82354C8.62861 3.52943 8.47059 3.37141 8.47059 3.17648V0.352945C8.47059 0.158015 8.62861 0 8.82354 0ZM9.17646 0.705891V2.82354H11.2941V0.705891H9.17646ZM11.2941 5.29411C11.2941 5.09918 11.4521 4.94116 11.6471 4.94116C11.842 4.94116 12 5.09918 12 5.29411V10.5882C12 11.3679 11.3679 12 10.5882 12H1.41176C0.632062 12 0 11.3679 0 10.5882V1.41176C0 0.632062 0.632062 0 1.41176 0H6.70587C6.9008 0 7.05881 0.158015 7.05881 0.352945C7.05881 0.547875 6.9008 0.705891 6.70587 0.705891H1.41176C1.0219 0.705891 0.705867 1.02192 0.705867 1.41178V10.5882C0.705867 10.9781 1.0219 11.2941 1.41176 11.2941H10.5882C10.9781 11.2941 11.2941 10.9781 11.2941 10.5882V5.29411Z" fill="#04086A" stroke="#04086A" stroke-width="0.5"/>
</g>
</g>
</g>
</g>
<defs>
<clipPath id="clip0_52_421">
<rect width="12" height="12" fill="white"/>
</clipPath>
</defs>
</svg>
