<svg width="24" height="24" viewBox="0 0 24 24" fill="none" xmlns="http://www.w3.org/2000/svg">
<path d="M14.3934 3.05009L21.339 5.37468C22.0008 5.5962 22.2177 6.42423 21.7493 6.94171L19.788 9.10951L21.0488 9.81913C21.7339 10.2042 21.6985 11.2021 20.9878 11.5377L19.2267 12.3675V17.1702C19.2267 17.5654 18.9864 17.921 18.6196 18.0682L12.1346 20.6717L12.0386 20.7047L11.903 20.7329L11.7995 20.7419L11.6792 20.738L11.5953 20.7255C11.5326 20.7146 11.47 20.6966 11.4079 20.6717L4.92302 18.0682C4.55622 17.921 4.31584 17.5654 4.31584 17.1702L4.31503 12.37L2.55391 11.5362C1.844 11.2001 1.8091 10.2029 2.49377 9.818L3.7615 9.10564L2.24504 7.40078C1.8062 6.90759 1.97914 6.12944 2.58557 5.86856L9.0705 3.07882C9.46468 2.90925 9.92347 3.01951 10.1975 3.3497L11.7677 5.24255L13.342 3.34935C13.5971 3.04222 14.0148 2.92335 14.3934 3.05009ZM6.25045 13.2861V16.5157L10.8 18.3414V13.9184L10.0399 14.4995C9.75227 14.719 9.36619 14.7596 9.0391 14.6049L6.25045 13.2861ZM17.2913 13.2836L14.5001 14.6049C14.1728 14.7598 13.7864 14.7189 13.4987 14.4991L12.7418 13.9209V18.3414L17.2913 16.5157V13.2836ZM18.1881 10.4308L13.7121 12.2268L14.205 12.6036L18.4668 10.5869L18.1881 10.4308ZM5.35241 10.4295L5.07242 10.5869L9.33291 12.6036L9.82709 12.2255L5.35241 10.4295ZM11.7702 7.79859L7.88135 9.35853L11.7715 10.9211L15.6591 9.35982L11.7702 7.79859ZM14.4063 5.09546L13.3624 6.35219L17.9907 8.2089L19.3209 6.73927L14.4063 5.09546ZM9.16905 5.14191L4.58212 7.11603L5.5537 8.20761L10.1742 6.35348L9.16905 5.14191Z" fill="#04086A"/>
</svg>
