<svg width="22" height="22" viewBox="0 0 22 22" fill="none" xmlns="http://www.w3.org/2000/svg">
<path d="M13.0942 3.16883L19.1716 5.20285C19.7507 5.39667 19.9405 6.1212 19.5307 6.574L17.8145 8.47082L18.9177 9.09174C19.5171 9.42871 19.4861 10.3019 18.8644 10.5955L17.3234 11.3215V15.5239C17.3234 15.8698 17.1131 16.1808 16.7921 16.3097L11.1178 18.5877L11.0338 18.6166L10.9151 18.6413L10.8245 18.6491L10.7193 18.6457L10.6459 18.6348C10.5911 18.6253 10.5363 18.6095 10.4819 18.5877L4.80764 16.3097C4.48669 16.1808 4.27636 15.8698 4.27636 15.5239L4.27565 11.3238L2.73467 10.5942C2.1135 10.3001 2.08296 9.42754 2.68205 9.09075L3.79132 8.46743L2.46441 6.97568C2.08042 6.54414 2.23175 5.86326 2.76238 5.63499L8.43669 3.19397C8.7816 3.04559 9.18303 3.14208 9.42284 3.43099L10.7967 5.08723L12.1742 3.43068C12.3975 3.16194 12.7629 3.05794 13.0942 3.16883ZM5.96914 12.1254V14.9512L9.94996 16.5488V12.6786L9.28494 13.187C9.03324 13.3791 8.69541 13.4147 8.40921 13.2793L5.96914 12.1254ZM15.6299 12.1231L13.1876 13.2793C12.9012 13.4148 12.5631 13.379 12.3114 13.1867L11.6491 12.6808V16.5488L15.6299 14.9512V12.1231ZM16.4146 9.62691L12.4981 11.1985L12.9294 11.5281L16.6584 9.76352L16.4146 9.62691ZM5.18336 9.62578L4.93837 9.76352L8.6663 11.5281L9.0987 11.1973L5.18336 9.62578ZM10.799 7.32377L7.39618 8.68872L10.8001 10.0559L14.2017 8.68985L10.799 7.32377ZM13.1055 4.95853L12.1921 6.05817L16.2418 7.68279L17.4058 6.39686L13.1055 4.95853ZM8.52292 4.99917L4.50935 6.72653L5.35948 7.68166L9.4024 6.0593L8.52292 4.99917Z" fill="#FCFCFC"/>
</svg>
