<svg width="22" height="22" viewBox="0 0 22 22" fill="none" xmlns="http://www.w3.org/2000/svg">
<g id="messenger 1" clip-path="url(#clip0_7_617)">
<path id="Vector" d="M11 0.00213914C5.05566 -0.115068 0.136824 4.59883 0.00109863 10.5428C0.0166088 13.5685 1.35637 16.4357 3.66739 18.3886V21.5417C3.66739 21.7948 3.87259 22 4.1257 22C4.21158 22 4.29575 21.9758 4.36857 21.9303L6.92308 20.3346C8.22456 20.8324 9.6066 21.0862 11 21.0834C16.9444 21.2006 21.8632 16.4867 21.999 10.5428C21.8632 4.59883 16.9444 -0.115068 11 0.00213914Z" fill="#2196F3"/>
<path id="Vector_2" d="M18.2409 7.51806C18.1046 7.33529 17.8545 7.28059 17.6543 7.38972L12.8881 9.98822L9.92303 7.44562C9.7412 7.28974 9.47001 7.3001 9.30069 7.46946L3.80123 12.9689C3.62279 13.1484 3.62365 13.4386 3.8032 13.617C3.94675 13.7597 4.16685 13.7914 4.34477 13.6949L9.11096 11.0964L12.0788 13.6399C12.2606 13.7957 12.5318 13.7854 12.7012 13.616L18.2006 8.11655C18.3609 7.95479 18.3781 7.69988 18.2409 7.51806Z" fill="#FAFAFA"/>
</g>
<defs>
<clipPath id="clip0_7_617">
<rect width="22" height="22" fill="white"/>
</clipPath>
</defs>
</svg>
