<svg width="18" height="18" viewBox="0 0 18 18" fill="none" xmlns="http://www.w3.org/2000/svg">
<g id="Icon/search">
<path id="Combined-Shape" d="M6.51398 0.400542C10.1559 -0.324409 13.8027 1.62424 15.2242 5.05475C16.3352 7.736 15.845 10.7388 14.1038 12.9078L17.502 16.3063C17.8327 16.637 17.8327 17.1731 17.502 17.5038C17.1713 17.8345 16.6352 17.8345 16.3045 17.5038L12.905 14.1052C12.7301 14.2454 12.5479 14.3791 12.3586 14.5056C9.27131 16.569 5.15636 16.1642 2.53038 13.5387C1.07046 12.0793 0.250173 10.0997 0.25 8.03549C0.249439 4.32213 2.87207 1.12549 6.51398 0.400542ZM13.6597 5.70305C12.5475 3.01895 9.69411 1.49429 6.84461 2.0615C3.99511 2.62872 1.94311 5.12983 1.94355 8.03529C1.94368 9.65035 2.58547 11.1992 3.72773 12.341C5.78238 14.3953 9.00199 14.712 11.4176 13.0976C13.8331 11.4831 14.7719 8.38715 13.6597 5.70305Z" fill="#04086A"/>
</g>
</svg>
