<svg width="16" height="16" viewBox="0 0 16 16" fill="none" xmlns="http://www.w3.org/2000/svg">
<g id="Icon/search">
<path id="Combined-Shape" d="M5.86913 0.629036C8.99076 0.00764966 12.1166 1.67792 13.335 4.61836C14.2873 6.91657 13.8671 9.49041 12.3746 11.3495L15.2874 14.2625C15.5709 14.546 15.5709 15.0055 15.2874 15.289C15.004 15.5724 14.5444 15.5724 14.261 15.289L11.3472 12.3759C11.1972 12.4961 11.0411 12.6106 10.8788 12.7191C8.23255 14.4877 4.70545 14.1407 2.45461 11.8903C1.20325 10.6394 0.500148 8.9426 0.5 7.17327C0.499519 3.9904 2.74749 1.25042 5.86913 0.629036ZM11.994 5.17404C11.0407 2.87338 8.59495 1.56653 6.15252 2.05272C3.71009 2.5389 1.95124 4.68271 1.95161 7.17311C1.95173 8.55744 2.50183 9.88502 3.48091 10.8638C5.24204 12.6245 8.00171 12.896 10.0722 11.5122C12.1427 10.1284 12.9473 7.4747 11.994 5.17404Z" fill="#04086A"/>
</g>
</svg>
