<svg width="14" height="14" viewBox="0 0 14 14" fill="none" xmlns="http://www.w3.org/2000/svg">
<g id="Icon/settings-2">
<path id="Combined-Shape" d="M10.3454 0.333313C12.1797 0.333313 13.6666 1.82031 13.6666 3.6546V10.3454C13.6666 12.1797 12.1797 13.6666 10.3454 13.6666H3.6546C1.82031 13.6666 0.333313 12.1797 0.333313 10.3454V3.6546C0.333313 1.82031 1.82031 0.333313 3.6546 0.333313H10.3454ZM10.3454 1.62364H3.6546C2.53293 1.62364 1.62364 2.53293 1.62364 3.6546V10.3454C1.62364 11.467 2.53293 12.3763 3.6546 12.3763H10.3454C11.467 12.3763 12.3763 11.467 12.3763 10.3454V3.6546C12.3763 2.53293 11.467 1.62364 10.3454 1.62364ZM6.89862 7.74127C7.53492 7.0608 8.57552 6.95365 9.33712 7.49019C9.65051 7.71122 9.8919 8.0191 10.0311 8.37441C10.0439 8.40688 10.0558 8.43963 10.0669 8.47261L10.4408 8.47269C10.7972 8.47269 11.086 8.76154 11.086 9.11785C11.086 9.47416 10.7972 9.76301 10.4408 9.76301L10.0678 9.76313C9.97651 10.0356 9.82676 10.2863 9.62733 10.4976C9.36342 10.776 9.02114 10.9676 8.64335 11.0476C8.26722 11.1257 7.87613 11.0851 7.52378 10.9315C7.1717 10.7778 6.8737 10.5222 6.66838 10.1978C6.58058 10.0593 6.51148 9.91333 6.46077 9.76313L3.55912 9.76301C3.20281 9.76301 2.91396 9.47416 2.91396 9.11785C2.91396 8.76154 3.20281 8.47269 3.55912 8.47269L6.46108 8.4729C6.5509 8.20674 6.69734 7.95655 6.89862 7.74127ZM8.594 8.54504C8.35885 8.37938 8.03756 8.41246 7.84112 8.62254C7.61527 8.86409 7.58119 9.22775 7.7584 9.50735C7.82605 9.61419 7.92413 9.69833 8.0398 9.74882C8.14717 9.79564 8.26642 9.808 8.3786 9.78472C8.49801 9.75944 8.60692 9.69847 8.68993 9.61091C8.78223 9.51312 8.84434 9.39076 8.86932 9.25574C8.89526 9.11889 8.8819 8.97749 8.83022 8.84648C8.78261 8.72495 8.70038 8.62007 8.594 8.54504ZM4.66283 3.25537C5.42443 2.71884 6.46504 2.82598 7.10135 3.50648C7.30233 3.72143 7.44863 3.9712 7.53849 4.23692L10.4408 4.23699C10.7972 4.23699 11.086 4.52584 11.086 4.88215C11.086 5.23846 10.7972 5.52731 10.4408 5.52731L7.53946 5.52766C7.48875 5.678 7.41962 5.82412 7.33175 5.96274C7.12625 6.28733 6.82826 6.54295 6.47595 6.69675C6.12382 6.85031 5.73273 6.89085 5.3541 6.81225C4.97882 6.7328 4.63653 6.54118 4.37166 6.26176C4.17246 6.05071 4.02265 5.79948 3.9317 5.52749L3.55912 5.52731C3.20281 5.52731 2.91396 5.23846 2.91396 4.88215C2.91396 4.52584 3.20281 4.23699 3.55912 4.23699L3.93398 4.23665L3.9683 4.14103C4.09058 3.82887 4.29068 3.55413 4.54874 3.34226L4.66283 3.25537ZM6.15885 4.38774C5.96239 4.17764 5.6411 4.14456 5.40595 4.31022C5.29957 4.38525 5.21734 4.49013 5.16917 4.6131C5.11805 4.74267 5.10469 4.88407 5.13116 5.02372C5.15562 5.15595 5.21773 5.2783 5.30906 5.37507C5.39303 5.46365 5.50194 5.52463 5.61885 5.54938C5.73354 5.57319 5.85279 5.56083 5.95993 5.5141C6.07582 5.46351 6.17391 5.37937 6.24173 5.27225C6.41877 4.99293 6.38469 4.62928 6.15885 4.38774Z" fill="#04086A"/>
</g>
</svg>
