<svg width="14" height="14" viewBox="0 0 14 14" fill="none" xmlns="http://www.w3.org/2000/svg">
<path d="M7.36301 0.333313C8.13134 0.332962 8.78731 0.888875 8.90552 1.60899L8.92378 1.69059C8.94201 1.78501 9.00803 1.86315 9.1263 1.9082C9.21289 1.94536 9.31247 1.93566 9.37744 1.89146L9.42021 1.86066C10.0417 1.41274 10.8964 1.48163 11.4385 2.02369L12.0166 2.6027C12.5284 3.11736 12.5928 3.92666 12.18 4.49968C12.1219 4.58578 12.1145 4.69642 12.1751 4.82082L12.2162 4.91666C12.2539 5.00865 12.3356 5.07534 12.4165 5.09096C13.1355 5.20817 13.6643 5.82811 13.6667 6.55868V7.5161C13.6667 8.19579 13.175 8.77571 12.5202 8.88434C12.4573 8.89641 12.406 8.94199 12.3806 9.02127C12.3354 9.15015 12.2853 9.27876 12.2246 9.41963C12.2035 9.46597 12.2081 9.51998 12.2284 9.54984C12.6193 10.0937 12.5586 10.8407 12.0853 11.314L11.2841 12.116C10.8317 12.5683 10.1183 12.6266 9.61069 12.2621C9.58809 12.2467 9.55882 12.245 9.52123 12.2645C9.33209 12.3582 9.13791 12.4414 8.92911 12.5174C8.90275 12.5265 8.88331 12.549 8.88135 12.5582C8.78253 13.1925 8.23863 13.6618 7.59183 13.6666H6.39785C5.76677 13.6666 5.22841 13.2099 5.12808 12.6012C5.12447 12.582 5.11063 12.5663 5.08042 12.5564C4.85656 12.4796 4.63769 12.3889 4.41463 12.2797C4.40995 12.2774 4.40496 12.2759 4.40037 12.275L4.38311 12.2739C3.87463 12.6395 3.17612 12.5829 2.73306 12.14L1.87971 11.2867C1.42695 10.8339 1.36812 10.1201 1.73299 9.61019C1.74845 9.58761 1.75068 9.55849 1.73328 9.52194C1.65019 9.33946 1.57691 9.15268 1.50837 8.94547C1.49772 8.91017 1.46832 8.88372 1.45046 8.88006C0.810659 8.77782 0.338343 8.22832 0.333328 7.57546V6.51086C0.330163 5.81044 0.836053 5.21136 1.51171 5.09994C1.58348 5.08629 1.64341 5.03713 1.67585 4.95739L1.79952 4.6871C1.836 4.61688 1.83096 4.53229 1.79589 4.48043C1.38848 3.91421 1.45104 3.13625 1.94424 2.64184L2.57126 2.01483C3.1038 1.48209 3.94371 1.41314 4.54865 1.84671L4.56024 1.85486C4.64473 1.91173 4.75224 1.92203 4.87958 1.86907C4.98103 1.83255 5.0558 1.74537 5.09078 1.58078L5.10832 1.50036C5.27944 0.820014 5.89309 0.3336 6.60603 0.333313H7.36301ZM7.36331 1.62363H6.60629C6.48148 1.62363 6.37511 1.71418 6.33718 1.91595L6.31025 2.02225C6.16965 2.51204 5.80423 2.90753 5.35015 3.06998C4.85463 3.28032 4.28636 3.22588 3.83158 2.9197L3.80444 2.90074C3.70552 2.82986 3.56984 2.841 3.48373 2.92714L2.85719 3.55368C2.81078 3.6002 2.80489 3.67349 2.85276 3.74038C3.16466 4.19818 3.19993 4.79029 2.95347 5.2641L2.8089 5.57974C2.59773 5.98835 2.2082 6.2809 1.73742 6.37027C1.67156 6.38115 1.62335 6.43825 1.62364 6.50793V7.57049C1.62377 7.58815 1.63664 7.60312 1.67245 7.60911C2.18122 7.70557 2.59411 8.07699 2.73833 8.55583L2.78942 8.70119C2.82493 8.79687 2.86304 8.8895 2.90205 8.97537L2.9535 9.09734C3.10428 9.50953 3.04799 9.97342 2.79013 10.3499C2.78474 10.3575 2.78559 10.3678 2.79212 10.3743L3.64 11.2219C4.00872 10.9668 4.47329 10.9165 4.8737 11.0727L5.15759 11.2027C5.26861 11.2514 5.37991 11.295 5.48778 11.3321L5.60242 11.3749C6.01302 11.5499 6.31309 11.9204 6.3987 12.377L7.587 12.3763C7.59669 12.3763 7.60491 12.3692 7.60952 12.3413L7.63716 12.2221C7.75729 11.7922 8.08055 11.4452 8.49783 11.3013L8.64989 11.2428C8.74986 11.2022 8.84631 11.159 8.93509 11.1151L9.05913 11.0578C9.47923 10.8885 9.96083 10.9387 10.3507 11.2052C10.3572 11.2099 10.3661 11.2092 10.3715 11.2038L11.1726 10.4018C11.1992 10.3753 11.2026 10.3335 11.1721 10.2908C10.8881 9.87586 10.8418 9.3425 11.0447 8.89738L11.1243 8.701L11.2027 8.48787C11.3915 8.0389 11.7945 7.70968 12.2929 7.6143C12.3411 7.60629 12.3763 7.5647 12.3763 7.5161V6.56078C12.376 6.46321 12.3052 6.38017 12.1921 6.3615C11.6659 6.26136 11.226 5.90219 11.0267 5.41655L10.9473 5.2328C10.7612 4.75326 10.8203 4.20806 11.1215 3.76205C11.1768 3.68521 11.1684 3.57965 11.1026 3.51347L10.5258 2.93577C10.4315 2.84151 10.2828 2.82952 10.1744 2.90763L10.1186 2.94759C9.67619 3.25009 9.10982 3.30529 8.64558 3.10524C8.13477 2.91396 7.76024 2.47073 7.66136 1.95656L7.64009 1.85819C7.61764 1.72282 7.50053 1.62363 7.36331 1.62363ZM7 4.34793C8.46468 4.34793 9.65204 5.53529 9.65204 6.99997C9.65204 8.46465 8.46468 9.65201 7 9.65201C5.53532 9.65201 4.34796 8.46465 4.34796 6.99997C4.34796 5.53529 5.53532 4.34793 7 4.34793ZM7 5.63825C6.24795 5.63825 5.63828 6.24792 5.63828 6.99997C5.63828 7.75203 6.24795 8.36169 7 8.36169C7.75206 8.36169 8.36172 7.75203 8.36172 6.99997C8.36172 6.24792 7.75206 5.63825 7 5.63825Z" fill="#04086A"/>
</svg>
