<svg width="14" height="12" viewBox="0 0 14 12" fill="none" xmlns="http://www.w3.org/2000/svg">
<g id="Icon/Knowledgebase">
<path id="Vector-4" d="M8.5956 0.0333918L13.226 1.58312C13.6672 1.7308 13.8118 2.28282 13.4995 2.62781L12.192 4.07301L13.0325 4.54609C13.4892 4.80282 13.4656 5.46809 12.9919 5.69181L11.8178 6.24497V9.44679C11.8178 9.71029 11.6576 9.94731 11.413 10.0455L7.08974 11.7811L7.02573 11.8031L6.93529 11.8219L6.86629 11.8279L6.78609 11.8253L6.73019 11.817C6.68841 11.8098 6.64666 11.7977 6.60527 11.7811L2.28199 10.0455C2.03746 9.94731 1.87721 9.71029 1.87721 9.44679L1.87667 6.24669L0.702584 5.69079C0.229312 5.46673 0.206044 4.80193 0.662493 4.54533L1.50765 4.07043L0.496673 2.93385C0.20411 2.60506 0.319405 2.08629 0.723695 1.91237L5.04698 0.0525465C5.30977 -0.0605027 5.61562 0.01301 5.79833 0.233136L6.84509 1.49504L7.89462 0.232898C8.06474 0.0281435 8.34315 -0.0510971 8.5956 0.0333918ZM3.16694 6.85742V9.01046L6.19995 10.2276V7.27891L5.69327 7.66631C5.5015 7.81265 5.2441 7.83976 5.02604 7.73661L3.16694 6.85742ZM10.5275 6.8557L8.66672 7.73661C8.44851 7.83983 8.19093 7.8126 7.99913 7.66604L7.49453 7.28063V10.2276L10.5275 9.01046V6.8557ZM11.1254 4.95384L8.14139 6.15121L8.46998 6.40238L11.3112 5.05792L11.1254 4.95384ZM2.56826 4.95297L2.3816 5.05792L5.22192 6.40238L5.55137 6.15035L2.56826 4.95297ZM6.84681 3.19906L4.25422 4.23902L6.84767 5.2807L9.4394 4.23988L6.84681 3.19906ZM8.60417 1.39697L7.90828 2.23479L10.9938 3.4726L11.8806 2.49285L8.60417 1.39697ZM5.11268 1.42794L2.05473 2.74402L2.70244 3.47174L5.78276 2.23565L5.11268 1.42794Z" fill="#04086A"/>
</g>
</svg>
