<svg width="24" height="24" viewBox="0 0 24 24" fill="none" xmlns="http://www.w3.org/2000/svg">
<g id="sms 1" clip-path="url(#clip0_7_655)">
<path id="Vector" d="M20.5167 0H3.48333C1.77535 0 0.386353 1.38899 0.386353 3.09697V17.0334C0.386353 18.7413 1.77535 20.1303 3.48333 20.1303V23.2258C3.48333 23.5262 3.65676 23.7987 3.92929 23.9272C4.03304 23.9752 4.14608 24 4.25757 24C4.43565 24 4.61217 23.9396 4.75309 23.8204L9.18331 20.1303H20.5167C22.2247 20.1303 23.6137 18.7413 23.6137 17.0334V3.09697C23.6137 1.38899 22.2247 0 20.5167 0Z" fill="#2196F3"/>
<g id="Group">
<path id="Vector_2" d="M5.80601 13.9363H4.25752C3.83014 13.9363 3.48328 13.5895 3.48328 13.1621C3.48328 12.7347 3.83014 12.3879 4.25752 12.3879H5.80601C6.23339 12.3879 6.58025 12.041 6.58025 11.6136C6.58025 11.1862 6.23339 10.8394 5.80601 10.8394C4.52541 10.8394 3.48328 9.79724 3.48328 8.51664C3.48328 7.23604 4.52541 6.19391 5.80601 6.19391H7.35449C7.78188 6.19391 8.12874 6.54077 8.12874 6.96815C8.12874 7.39553 7.78188 7.7424 7.35449 7.7424H5.80601C5.37862 7.7424 5.03176 8.08926 5.03176 8.51664C5.03176 8.94402 5.37862 9.29088 5.80601 9.29088C7.08661 9.29088 8.12874 10.333 8.12874 11.6136C8.12874 12.8942 7.08661 13.9363 5.80601 13.9363Z" fill="#FAFAFA"/>
<path id="Vector_3" d="M18.1939 13.9363H16.6455C16.2181 13.9363 15.8712 13.5895 15.8712 13.1621C15.8712 12.7347 16.2181 12.3879 16.6455 12.3879H18.1939C18.6198 12.3879 18.9682 12.041 18.9682 11.6136C18.9682 11.1862 18.6198 10.8394 18.1939 10.8394C16.9133 10.8394 15.8712 9.79724 15.8712 8.51664C15.8712 7.23604 16.9133 6.19391 18.1939 6.19391H19.7424C20.1698 6.19391 20.5167 6.54077 20.5167 6.96815C20.5167 7.39553 20.1698 7.7424 19.7424 7.7424H18.1939C17.7681 7.7424 17.4197 8.08926 17.4197 8.51664C17.4197 8.94402 17.7681 9.29088 18.1939 9.29088C19.4745 9.29088 20.5167 10.333 20.5167 11.6136C20.5167 12.8942 19.4745 13.9363 18.1939 13.9363Z" fill="#FAFAFA"/>
<path id="Vector_4" d="M13.5485 13.9364C13.1211 13.9364 12.7742 13.5895 12.7742 13.1621V10.2479L12.6922 10.412C12.4289 10.937 11.5695 10.937 11.3063 10.412L11.2257 10.2479V13.1621C11.2257 13.5895 10.8789 13.9364 10.4515 13.9364C10.0241 13.9364 9.67725 13.5895 9.67725 13.1621V6.96818C9.67725 6.60893 9.925 6.29614 10.2734 6.21407C10.6187 6.13045 10.9826 6.30079 11.1437 6.62132L12 8.33395L12.8563 6.62287C13.0158 6.29924 13.3704 6.132 13.7265 6.21407C14.0765 6.29614 14.3227 6.60893 14.3227 6.96818V13.1621C14.3227 13.5895 13.9758 13.9364 13.5485 13.9364Z" fill="#FAFAFA"/>
</g>
</g>
<defs>
<clipPath id="clip0_7_655">
<rect width="24" height="24" fill="white"/>
</clipPath>
</defs>
</svg>
