<svg width="22" height="22" viewBox="0 0 22 22" fill="none" xmlns="http://www.w3.org/2000/svg">
<path d="M15.0582 13.0935C14.9394 13.0935 14.8206 13.0618 14.7177 12.9826C14.4484 12.7926 14.3851 12.4204 14.5751 12.1591C15.2245 11.2327 15.1136 9.98945 14.3138 9.18969C14.0842 8.96005 14.0842 8.57996 14.3138 8.35033C14.5435 8.12069 14.9236 8.12069 15.1532 8.35033C16.3568 9.55394 16.5231 11.4465 15.5491 12.8401C15.4303 13.0064 15.2482 13.0935 15.0582 13.0935Z" fill="#04086A"/>
<path d="M17.1248 15.0098C17.006 15.0098 16.8872 14.9781 16.7843 14.8989C16.5151 14.7089 16.4517 14.3367 16.6497 14.0675C18.2413 11.8345 17.9879 8.80963 16.04 6.86168C15.8103 6.63205 15.8103 6.25196 16.04 6.02232C16.2696 5.79269 16.6497 5.79269 16.8793 6.02232C19.2311 8.37411 19.5399 12.0483 17.6157 14.7564C17.497 14.9227 17.3148 15.0019 17.1327 15.0019L17.1248 15.0098Z" fill="#04086A"/>
<path d="M12.5954 10.8367C12.2708 10.8367 12.0015 10.5675 12.0015 10.2428V6.30736C12.0015 5.99854 11.7877 5.84809 11.7006 5.79266C11.6056 5.74515 11.3681 5.64221 11.1067 5.8085L8.92125 7.05962C8.63618 7.21799 8.27193 7.12297 8.11356 6.8379C7.94727 6.55284 8.05021 6.18859 8.33528 6.03022L10.497 4.79493C11.0355 4.46236 11.7085 4.44652 12.2787 4.76326C12.8488 5.08 13.1893 5.65805 13.1893 6.31528V10.2508C13.1893 10.5754 12.9201 10.8446 12.5954 10.8446V10.8367Z" fill="#04086A"/>
<path d="M11.4156 17.124C11.0909 17.124 10.7742 17.0369 10.4891 16.8547L7.09209 14.7563H5.0808C4.00389 14.7563 3.12494 13.8774 3.12494 12.8005V8.84916C3.12494 7.76433 4.00389 6.88538 5.0808 6.88538H6.98124C7.30589 6.88538 7.57512 7.1546 7.57512 7.47926C7.57512 7.80392 7.30589 8.07315 6.98124 8.07315H5.0808C4.6532 8.07315 4.31271 8.42156 4.31271 8.84916V12.8005C4.31271 13.2281 4.66112 13.5686 5.0808 13.5686H7.25838C7.36924 13.5686 7.4801 13.6002 7.5672 13.6557L11.1068 15.8412C11.376 16.0075 11.6135 15.9045 11.7006 15.857C11.7877 15.8095 12.0015 15.659 12.0015 15.3423V12.8242C12.0015 12.4996 12.2708 12.2303 12.5954 12.2303C12.9201 12.2303 13.1893 12.4996 13.1893 12.8242V15.3423C13.1893 15.9916 12.8488 16.5697 12.2787 16.8943C12.0095 17.0448 11.7086 17.124 11.4156 17.124Z" fill="#04086A"/>
<path d="M7.25838 14.7643C6.93372 14.7643 6.66449 14.495 6.66449 14.1704V7.4872C6.66449 7.16254 6.93372 6.89331 7.25838 6.89331C7.58303 6.89331 7.85226 7.16254 7.85226 7.4872V14.1704C7.85226 14.495 7.58303 14.7643 7.25838 14.7643Z" fill="#04086A"/>
<path d="M16.6575 17.0765C16.5071 17.0765 16.3646 17.0211 16.2458 16.9102L4.28888 5.46009C4.05133 5.23045 4.04341 4.85828 4.27304 4.62073C4.50268 4.38317 4.87485 4.37526 5.1124 4.60489L17.0772 16.055C17.3148 16.2846 17.3227 16.6568 17.0931 16.8944C16.9743 17.0131 16.8238 17.0765 16.6655 17.0765H16.6575Z" fill="#04086A"/>
</svg>
