<svg width="22" height="22" viewBox="0 0 22 22" fill="none" xmlns="http://www.w3.org/2000/svg">
<path d="M17.3128 13.0587C17.3037 16.0387 15.2712 18.6229 12.3944 19.3439L12.3212 19.3606C12.2953 19.368 12.2634 19.3754 12.2314 19.3826L12.1322 19.3983L10.8553 19.6754L10.791 19.6964C10.2685 19.8316 9.71182 19.7075 9.29622 19.3632L9.17595 19.2534C8.71319 18.7878 8.56323 18.0958 8.79177 17.4805C9.00398 16.9091 9.50662 16.5007 10.1013 16.4048L10.1696 16.3961L10.2401 16.3882L10.1722 16.3953L10.1696 16.3961L10.1722 16.3953L11.465 16.1173C12.2865 15.8848 13.1384 16.2823 13.5025 17.0237C14.0726 16.6384 14.5516 16.1359 14.909 15.5542L14.8061 15.5561C13.4218 15.5561 12.2995 14.4339 12.2995 13.0495V10.5596C12.2995 9.17522 13.4218 8.05295 14.8061 8.05295C15.0705 8.05295 15.3253 8.09386 15.5645 8.16971C15.2094 5.77845 13.1472 3.94355 10.6564 3.94355C8.16563 3.94355 6.10342 5.77845 5.74777 8.17026C5.98692 8.09396 6.242 8.05295 6.50667 8.05295C7.89106 8.05295 9.01334 9.17522 9.01334 10.5596V13.0495C9.01334 14.4339 7.89106 15.5561 6.50667 15.5561C5.12227 15.5561 4 14.4339 4 13.0495V8.90641C4 5.23017 6.98017 2.25 10.6564 2.25C14.3326 2.25 17.3128 5.23017 17.3128 8.90641V13.0587ZM6.50667 9.74649C6.05759 9.74649 5.69355 10.1105 5.69355 10.5596V13.0495C5.69355 13.4985 6.05759 13.8626 6.50667 13.8626C6.95574 13.8626 7.31979 13.4985 7.31979 13.0495V10.5596C7.31979 10.1105 6.95574 9.74649 6.50667 9.74649ZM14.8061 9.74649C14.3571 9.74649 13.993 10.1105 13.993 10.5596V13.0495C13.993 13.4985 14.3571 13.8626 14.8061 13.8626C15.2552 13.8626 15.6193 13.4985 15.6193 13.0495V10.5596C15.6193 10.1105 15.2552 9.74649 14.8061 9.74649Z" fill="#04086A"/>
</svg>
