<svg width="22" height="22" viewBox="0 0 22 22" fill="none" xmlns="http://www.w3.org/2000/svg">
<path d="M14.1964 1.37543C17.2277 1.34041 19.7138 3.76886 19.75 6.81096V12.3178C19.7472 13.967 18.989 15.5241 17.6868 16.5477L17.5554 16.6582L17.4399 16.7727L16.8091 17.4757L14.9379 19.4325C14.5789 19.7961 14.0893 20.0008 13.5783 20.0008C13.0674 20.0008 12.5777 19.7961 12.2088 19.4222L11.0101 18.1686C10.7573 17.9041 10.4075 17.7544 10.0425 17.7541L7.80363 17.7541C6.34743 17.7709 4.94419 17.2085 3.90267 16.1906C2.86115 15.1727 2.26668 13.7828 2.25 12.3163V6.80023C2.28615 3.76886 4.77226 1.34041 7.79322 1.37537L14.1964 1.37543ZM14.2172 3.1778H7.78281C5.74661 3.15428 4.07667 4.78549 4.05243 6.81096V12.306C4.0636 13.2842 4.46291 14.2178 5.16251 14.9015C5.86211 15.5852 6.80467 15.963 7.79322 15.9516L10.0432 15.9516C10.9006 15.9524 11.7205 16.3033 12.3129 16.923L13.5015 18.1662C13.5218 18.1868 13.5495 18.1983 13.5783 18.1983C13.6072 18.1983 13.6348 18.1868 13.6451 18.1765L15.4867 16.2513L16.1059 15.5606C16.2527 15.4012 16.4127 15.2544 16.5785 15.1262L16.7578 14.9756C17.5107 14.2998 17.9458 13.3338 17.9476 12.3163V6.82168C17.9233 4.78549 16.2534 3.15428 14.2172 3.1778ZM8.47763 10.9237C8.6268 11.3122 8.87123 11.6571 9.18443 11.9232C10.2281 12.7992 11.7469 12.8103 12.7999 11.9523C13.0681 11.7316 13.2866 11.4577 13.4421 11.1487L13.5278 10.9593C13.7137 10.4976 14.2387 10.274 14.7004 10.46C15.1622 10.6459 15.3857 11.171 15.1997 11.6327C14.9313 12.2991 14.5 12.8876 13.9419 13.3469C12.2149 14.754 9.73184 14.7359 8.02155 13.3004C7.47411 12.8353 7.05229 12.2402 6.79487 11.5696C6.61648 11.105 6.84857 10.5837 7.31325 10.4053C7.77794 10.2269 8.29924 10.459 8.47763 10.9237ZM7.63625 5.8604C8.13399 5.8604 8.53749 6.26391 8.53749 6.76165V7.8829C8.53749 8.38065 8.13399 8.78415 7.63625 8.78415C7.1385 8.78415 6.735 8.38065 6.735 7.8829V6.76165C6.735 6.26391 7.1385 5.8604 7.63625 5.8604ZM14.3638 5.8604C14.8615 5.8604 15.265 6.26391 15.265 6.76165V7.8829C15.265 8.38065 14.8615 8.78415 14.3638 8.78415C13.866 8.78415 13.4625 8.38065 13.4625 7.8829V6.76165C13.4625 6.26391 13.866 5.8604 14.3638 5.8604Z" fill="#04086A"/>
</svg>
